<mxfile host="Electron" agent="Mozilla/5.0 (Windows NT 10.0; Win64; x64) AppleWebKit/537.36 (KHTML, like Gecko) draw.io/25.0.2 Chrome/128.0.6613.186 Electron/32.2.5 Safari/537.36" version="25.0.2">
  <diagram name="第 1 页" id="5KSprpMwUYVPSRvnmA9z">
    <mxGraphModel dx="1260" dy="967" grid="1" gridSize="5" guides="1" tooltips="1" connect="1" arrows="1" fold="1" page="1" pageScale="1" pageWidth="1654" pageHeight="1169" background="#E6E6E6" math="0" shadow="0">
      <root>
        <mxCell id="0" />
        <mxCell id="1" parent="0" />
        <mxCell id="m9lJWsYRmjQU2goQzDvf-94" value="" style="rounded=0;whiteSpace=wrap;html=1;strokeColor=none;fillColor=#0000FF;opacity=30;" parent="1" vertex="1">
          <mxGeometry x="405" y="330" width="135" height="120" as="geometry" />
        </mxCell>
        <mxCell id="EGFDkehEQVp23pimZ-VM-120" value="&lt;font style=&quot;font-size: 60px;&quot;&gt;&lt;font style=&quot;font-size: 60px;&quot;&gt;幻想郷鉄道配&lt;/font&gt;線略図&lt;/font&gt;&lt;font style=&quot;font-size: 40px;&quot;&gt;（幽明結界線・冥界線）&lt;/font&gt;" style="text;strokeColor=none;align=center;fillColor=none;html=1;verticalAlign=middle;whiteSpace=wrap;rounded=0;" parent="1" vertex="1">
          <mxGeometry x="41.510000000000005" y="22" width="1449" height="96" as="geometry" />
        </mxCell>
        <mxCell id="tvAASxh0KpPbqqvKrxWj-50" value="" style="rounded=0;whiteSpace=wrap;html=1;" parent="1" vertex="1">
          <mxGeometry x="1255" y="194" width="47.15" height="20" as="geometry" />
        </mxCell>
        <mxCell id="tvAASxh0KpPbqqvKrxWj-60" value="山後大野" style="text;whiteSpace=wrap;html=1;align=center;" parent="1" vertex="1">
          <mxGeometry x="1251.54" y="221" width="54.08" height="28" as="geometry" />
        </mxCell>
        <mxCell id="tvAASxh0KpPbqqvKrxWj-66" value="&lt;font style=&quot;font-size: 10px;&quot;&gt;八雲邸・紅魔館方面&lt;/font&gt;" style="text;strokeColor=none;align=center;fillColor=none;html=1;verticalAlign=middle;whiteSpace=wrap;rounded=0;" parent="1" vertex="1">
          <mxGeometry x="1335" y="205" width="118" height="30" as="geometry" />
        </mxCell>
        <mxCell id="tvAASxh0KpPbqqvKrxWj-68" value="&lt;span style=&quot;font-size: 15px;&quot;&gt;&lt;b&gt;幽明結界線&lt;/b&gt;&lt;/span&gt;" style="text;strokeColor=none;align=center;fillColor=none;html=1;verticalAlign=middle;whiteSpace=wrap;rounded=0;" parent="1" vertex="1">
          <mxGeometry x="1325" y="230" width="85" height="30" as="geometry" />
        </mxCell>
        <mxCell id="Thoatvcf_QEA1k7CGv5Z-5" value="" style="rounded=0;whiteSpace=wrap;html=1;" parent="1" vertex="1">
          <mxGeometry x="1437" y="6" width="211" height="188" as="geometry" />
        </mxCell>
        <mxCell id="Thoatvcf_QEA1k7CGv5Z-6" value="凡　例" style="text;html=1;align=center;verticalAlign=middle;resizable=0;points=[];autosize=1;strokeColor=none;fillColor=none;" parent="1" vertex="1">
          <mxGeometry x="1515" y="10" width="55" height="27" as="geometry" />
        </mxCell>
        <mxCell id="Thoatvcf_QEA1k7CGv5Z-7" value="" style="endArrow=none;html=1;rounded=0;" parent="1" edge="1">
          <mxGeometry width="50" height="50" relative="1" as="geometry">
            <mxPoint x="1495" y="48" as="sourcePoint" />
            <mxPoint x="1447" y="48" as="targetPoint" />
          </mxGeometry>
        </mxCell>
        <mxCell id="Thoatvcf_QEA1k7CGv5Z-8" value="狭軌線路（1067㎜）" style="text;html=1;align=center;verticalAlign=middle;resizable=0;points=[];autosize=1;strokeColor=none;fillColor=none;" parent="1" vertex="1">
          <mxGeometry x="1515" y="35" width="130" height="27" as="geometry" />
        </mxCell>
        <mxCell id="Thoatvcf_QEA1k7CGv5Z-9" value="標準軌線路（1435㎜）" style="text;html=1;align=center;verticalAlign=middle;resizable=0;points=[];autosize=1;strokeColor=none;fillColor=none;" parent="1" vertex="1">
          <mxGeometry x="1508" y="61" width="142" height="27" as="geometry" />
        </mxCell>
        <mxCell id="Thoatvcf_QEA1k7CGv5Z-10" value="" style="endArrow=none;html=1;rounded=0;strokeColor=#FF0000;" parent="1" edge="1">
          <mxGeometry width="50" height="50" relative="1" as="geometry">
            <mxPoint x="1495" y="75.64" as="sourcePoint" />
            <mxPoint x="1447" y="75.64" as="targetPoint" />
          </mxGeometry>
        </mxCell>
        <mxCell id="Thoatvcf_QEA1k7CGv5Z-11" value="" style="rounded=0;whiteSpace=wrap;html=1;" parent="1" vertex="1">
          <mxGeometry x="1447" y="93.63999999999999" width="48" height="20" as="geometry" />
        </mxCell>
        <mxCell id="Thoatvcf_QEA1k7CGv5Z-12" value="プラットホーム" style="text;html=1;align=center;verticalAlign=middle;resizable=0;points=[];autosize=1;strokeColor=none;fillColor=none;" parent="1" vertex="1">
          <mxGeometry x="1524.5" y="90" width="103" height="27" as="geometry" />
        </mxCell>
        <mxCell id="Thoatvcf_QEA1k7CGv5Z-13" value="" style="endArrow=none;html=1;rounded=0;" parent="1" edge="1">
          <mxGeometry width="50" height="50" relative="1" as="geometry">
            <mxPoint x="1467" y="129.64" as="sourcePoint" />
            <mxPoint x="1477" y="129.64" as="targetPoint" />
          </mxGeometry>
        </mxCell>
        <mxCell id="Thoatvcf_QEA1k7CGv5Z-14" value="" style="endArrow=none;html=1;rounded=0;" parent="1" edge="1">
          <mxGeometry width="50" height="50" relative="1" as="geometry">
            <mxPoint x="1467" y="133.64" as="sourcePoint" />
            <mxPoint x="1467" y="125.63999999999999" as="targetPoint" />
          </mxGeometry>
        </mxCell>
        <mxCell id="Thoatvcf_QEA1k7CGv5Z-15" value="線路終端" style="text;html=1;align=center;verticalAlign=middle;resizable=0;points=[];autosize=1;strokeColor=none;fillColor=none;" parent="1" vertex="1">
          <mxGeometry x="1539" y="116" width="67" height="27" as="geometry" />
        </mxCell>
        <mxCell id="Thoatvcf_QEA1k7CGv5Z-16" value="" style="endArrow=none;html=1;rounded=0;strokeColor=#0000FF;opacity=50;strokeWidth=5;" parent="1" edge="1">
          <mxGeometry width="50" height="50" relative="1" as="geometry">
            <mxPoint x="1447" y="152" as="sourcePoint" />
            <mxPoint x="1494" y="152" as="targetPoint" />
          </mxGeometry>
        </mxCell>
        <mxCell id="Thoatvcf_QEA1k7CGv5Z-17" value="地下区間 /&amp;nbsp;&lt;span style=&quot;background-color: initial;&quot;&gt;長いトンネル&lt;/span&gt;" style="text;html=1;align=center;verticalAlign=middle;resizable=0;points=[];autosize=1;strokeColor=none;fillColor=none;" parent="1" vertex="1">
          <mxGeometry x="1496" y="139" width="149" height="27" as="geometry" />
        </mxCell>
        <mxCell id="Thoatvcf_QEA1k7CGv5Z-18" value="高架区間 /&amp;nbsp;&lt;span style=&quot;background-color: initial;&quot;&gt;長い橋梁&lt;/span&gt;" style="text;html=1;align=center;verticalAlign=middle;resizable=0;points=[];autosize=1;strokeColor=none;fillColor=none;" parent="1" vertex="1">
          <mxGeometry x="1507" y="162" width="125" height="27" as="geometry" />
        </mxCell>
        <mxCell id="Thoatvcf_QEA1k7CGv5Z-19" value="" style="endArrow=none;html=1;rounded=0;strokeWidth=3;opacity=50;strokeColor=#00FF00;" parent="1" edge="1">
          <mxGeometry width="50" height="50" relative="1" as="geometry">
            <mxPoint x="1447" y="175" as="sourcePoint" />
            <mxPoint x="1494" y="175" as="targetPoint" />
          </mxGeometry>
        </mxCell>
        <mxCell id="m9lJWsYRmjQU2goQzDvf-1" value="" style="endArrow=none;html=1;rounded=0;" parent="1" edge="1">
          <mxGeometry width="50" height="50" relative="1" as="geometry">
            <mxPoint x="360" y="220" as="sourcePoint" />
            <mxPoint x="1340" y="220" as="targetPoint" />
            <Array as="points">
              <mxPoint x="380" y="200" />
              <mxPoint x="440" y="200" />
              <mxPoint x="460" y="220" />
              <mxPoint x="820" y="220" />
              <mxPoint x="840" y="200" />
              <mxPoint x="900" y="200" />
              <mxPoint x="920" y="220" />
            </Array>
          </mxGeometry>
        </mxCell>
        <mxCell id="m9lJWsYRmjQU2goQzDvf-3" value="" style="rounded=0;whiteSpace=wrap;html=1;" parent="1" vertex="1">
          <mxGeometry x="1155" y="194" width="47.15" height="20" as="geometry" />
        </mxCell>
        <mxCell id="m9lJWsYRmjQU2goQzDvf-4" value="" style="rounded=0;whiteSpace=wrap;html=1;" parent="1" vertex="1">
          <mxGeometry x="1055" y="225" width="47.15" height="20" as="geometry" />
        </mxCell>
        <mxCell id="m9lJWsYRmjQU2goQzDvf-5" value="" style="rounded=0;whiteSpace=wrap;html=1;" parent="1" vertex="1">
          <mxGeometry x="955" y="195" width="47.15" height="20" as="geometry" />
        </mxCell>
        <mxCell id="m9lJWsYRmjQU2goQzDvf-6" value="" style="rounded=0;whiteSpace=wrap;html=1;" parent="1" vertex="1">
          <mxGeometry x="845" y="205" width="50" height="30" as="geometry" />
        </mxCell>
        <mxCell id="m9lJWsYRmjQU2goQzDvf-7" value="" style="endArrow=none;html=1;rounded=0;" parent="1" edge="1">
          <mxGeometry width="50" height="50" relative="1" as="geometry">
            <mxPoint x="820" y="220" as="sourcePoint" />
            <mxPoint x="920" y="220" as="targetPoint" />
            <Array as="points">
              <mxPoint x="840" y="240" />
              <mxPoint x="900" y="240" />
            </Array>
          </mxGeometry>
        </mxCell>
        <mxCell id="m9lJWsYRmjQU2goQzDvf-8" value="" style="rounded=0;whiteSpace=wrap;html=1;" parent="1" vertex="1">
          <mxGeometry x="715" y="195" width="47.15" height="20" as="geometry" />
        </mxCell>
        <mxCell id="m9lJWsYRmjQU2goQzDvf-9" value="" style="rounded=0;whiteSpace=wrap;html=1;" parent="1" vertex="1">
          <mxGeometry x="615" y="225" width="47.15" height="20" as="geometry" />
        </mxCell>
        <mxCell id="m9lJWsYRmjQU2goQzDvf-10" value="" style="rounded=0;whiteSpace=wrap;html=1;" parent="1" vertex="1">
          <mxGeometry x="515" y="195" width="47.15" height="20" as="geometry" />
        </mxCell>
        <mxCell id="m9lJWsYRmjQU2goQzDvf-11" value="" style="endArrow=none;html=1;rounded=0;" parent="1" edge="1">
          <mxGeometry width="50" height="50" relative="1" as="geometry">
            <mxPoint x="80" y="220" as="sourcePoint" />
            <mxPoint x="460" y="220" as="targetPoint" />
          </mxGeometry>
        </mxCell>
        <mxCell id="m9lJWsYRmjQU2goQzDvf-12" value="" style="rounded=0;whiteSpace=wrap;html=1;" parent="1" vertex="1">
          <mxGeometry x="275" y="195" width="47.15" height="20" as="geometry" />
        </mxCell>
        <mxCell id="m9lJWsYRmjQU2goQzDvf-13" value="" style="rounded=0;whiteSpace=wrap;html=1;" parent="1" vertex="1">
          <mxGeometry x="185" y="195" width="47.15" height="20" as="geometry" />
        </mxCell>
        <mxCell id="m9lJWsYRmjQU2goQzDvf-14" value="" style="rounded=0;whiteSpace=wrap;html=1;" parent="1" vertex="1">
          <mxGeometry x="100" y="225" width="47.15" height="20" as="geometry" />
        </mxCell>
        <mxCell id="m9lJWsYRmjQU2goQzDvf-15" value="&lt;span style=&quot;text-align: start;&quot;&gt;&lt;font style=&quot;&quot; face=&quot;Helvetica&quot;&gt;堀川&lt;/font&gt;&lt;/span&gt;" style="text;whiteSpace=wrap;html=1;align=center;" parent="1" vertex="1">
          <mxGeometry x="1151.54" y="221" width="54.08" height="28" as="geometry" />
        </mxCell>
        <mxCell id="m9lJWsYRmjQU2goQzDvf-17" value="山後池沼" style="text;whiteSpace=wrap;html=1;align=center;" parent="1" vertex="1">
          <mxGeometry x="1051.54" y="245" width="54.08" height="28" as="geometry" />
        </mxCell>
        <mxCell id="m9lJWsYRmjQU2goQzDvf-18" value="八雲白岡" style="text;whiteSpace=wrap;html=1;align=center;" parent="1" vertex="1">
          <mxGeometry x="951.54" y="221" width="54.08" height="28" as="geometry" />
        </mxCell>
        <mxCell id="m9lJWsYRmjQU2goQzDvf-19" value="東風谷" style="text;whiteSpace=wrap;html=1;align=center;" parent="1" vertex="1">
          <mxGeometry x="842.96" y="240" width="54.08" height="28" as="geometry" />
        </mxCell>
        <mxCell id="m9lJWsYRmjQU2goQzDvf-20" value="風谷" style="text;whiteSpace=wrap;html=1;align=center;" parent="1" vertex="1">
          <mxGeometry x="711.54" y="221" width="54.08" height="28" as="geometry" />
        </mxCell>
        <mxCell id="m9lJWsYRmjQU2goQzDvf-21" value="山見" style="text;whiteSpace=wrap;html=1;align=center;" parent="1" vertex="1">
          <mxGeometry x="611.54" y="245" width="54.08" height="28" as="geometry" />
        </mxCell>
        <mxCell id="m9lJWsYRmjQU2goQzDvf-22" value="山後中川" style="text;whiteSpace=wrap;html=1;align=center;" parent="1" vertex="1">
          <mxGeometry x="511.54" y="221" width="54.08" height="28" as="geometry" />
        </mxCell>
        <mxCell id="m9lJWsYRmjQU2goQzDvf-23" value="平岡（信）" style="text;whiteSpace=wrap;html=1;align=center;" parent="1" vertex="1">
          <mxGeometry x="380" y="221" width="65" height="28" as="geometry" />
        </mxCell>
        <mxCell id="m9lJWsYRmjQU2goQzDvf-24" value="恵川" style="text;whiteSpace=wrap;html=1;align=center;" parent="1" vertex="1">
          <mxGeometry x="271.54" y="221" width="54.08" height="28" as="geometry" />
        </mxCell>
        <mxCell id="m9lJWsYRmjQU2goQzDvf-25" value="飯岡" style="text;whiteSpace=wrap;html=1;align=center;" parent="1" vertex="1">
          <mxGeometry x="96.53999999999999" y="245" width="54.08" height="28" as="geometry" />
        </mxCell>
        <mxCell id="m9lJWsYRmjQU2goQzDvf-26" value="小野塚" style="text;whiteSpace=wrap;html=1;align=center;" parent="1" vertex="1">
          <mxGeometry x="181.54" y="221" width="54.08" height="28" as="geometry" />
        </mxCell>
        <mxCell id="m9lJWsYRmjQU2goQzDvf-27" value="&lt;font style=&quot;font-size: 10px;&quot;&gt;宇佐見・冥界口方面&lt;/font&gt;" style="text;strokeColor=none;align=center;fillColor=none;html=1;verticalAlign=middle;whiteSpace=wrap;rounded=0;" parent="1" vertex="1">
          <mxGeometry x="29.15" y="189" width="118" height="30" as="geometry" />
        </mxCell>
        <mxCell id="m9lJWsYRmjQU2goQzDvf-28" value="" style="endArrow=none;html=1;rounded=0;" parent="1" edge="1">
          <mxGeometry width="50" height="50" relative="1" as="geometry">
            <mxPoint x="161.54000000000002" y="380" as="sourcePoint" />
            <mxPoint x="1481.54" y="380" as="targetPoint" />
            <Array as="points">
              <mxPoint x="191.54000000000002" y="400" />
              <mxPoint x="1261.54" y="400" />
              <mxPoint x="1281.54" y="380" />
              <mxPoint x="1341.54" y="380" />
              <mxPoint x="1361.54" y="395" />
              <mxPoint x="1421.54" y="395" />
              <mxPoint x="1441.54" y="380" />
            </Array>
          </mxGeometry>
        </mxCell>
        <mxCell id="m9lJWsYRmjQU2goQzDvf-29" value="" style="rounded=0;whiteSpace=wrap;html=1;" parent="1" vertex="1">
          <mxGeometry x="1368.54" y="400" width="47.15" height="20" as="geometry" />
        </mxCell>
        <mxCell id="m9lJWsYRmjQU2goQzDvf-30" value="" style="rounded=0;whiteSpace=wrap;html=1;" parent="1" vertex="1">
          <mxGeometry x="1368.54" y="365" width="47.15" height="20" as="geometry" />
        </mxCell>
        <mxCell id="m9lJWsYRmjQU2goQzDvf-31" value="" style="endArrow=none;html=1;rounded=0;" parent="1" edge="1">
          <mxGeometry width="50" height="50" relative="1" as="geometry">
            <mxPoint x="1341.54" y="380" as="sourcePoint" />
            <mxPoint x="1441.54" y="380" as="targetPoint" />
            <Array as="points">
              <mxPoint x="1361.54" y="360" />
              <mxPoint x="1421.54" y="360" />
            </Array>
          </mxGeometry>
        </mxCell>
        <mxCell id="m9lJWsYRmjQU2goQzDvf-32" value="" style="endArrow=none;html=1;rounded=0;" parent="1" edge="1">
          <mxGeometry width="50" height="50" relative="1" as="geometry">
            <mxPoint x="141.54000000000002" y="380" as="sourcePoint" />
            <mxPoint x="1281.54" y="380" as="targetPoint" />
            <Array as="points">
              <mxPoint x="161.54000000000002" y="380" />
              <mxPoint x="191.54000000000002" y="360" />
              <mxPoint x="881.54" y="360" />
              <mxPoint x="1261.54" y="360" />
            </Array>
          </mxGeometry>
        </mxCell>
        <mxCell id="m9lJWsYRmjQU2goQzDvf-33" value="" style="endArrow=none;html=1;rounded=0;" parent="1" edge="1">
          <mxGeometry width="50" height="50" relative="1" as="geometry">
            <mxPoint x="1141.54" y="360" as="sourcePoint" />
            <mxPoint x="1221.54" y="360" as="targetPoint" />
            <Array as="points">
              <mxPoint x="1161.54" y="380" />
              <mxPoint x="1201.54" y="380" />
            </Array>
          </mxGeometry>
        </mxCell>
        <mxCell id="m9lJWsYRmjQU2goQzDvf-34" value="" style="endArrow=none;html=1;rounded=0;" parent="1" edge="1">
          <mxGeometry width="50" height="50" relative="1" as="geometry">
            <mxPoint x="1141.54" y="400" as="sourcePoint" />
            <mxPoint x="1161.54" y="380" as="targetPoint" />
          </mxGeometry>
        </mxCell>
        <mxCell id="m9lJWsYRmjQU2goQzDvf-35" value="" style="endArrow=none;html=1;rounded=0;" parent="1" edge="1">
          <mxGeometry width="50" height="50" relative="1" as="geometry">
            <mxPoint x="1201.54" y="380" as="sourcePoint" />
            <mxPoint x="1221.54" y="400" as="targetPoint" />
          </mxGeometry>
        </mxCell>
        <mxCell id="m9lJWsYRmjQU2goQzDvf-36" value="" style="rounded=0;whiteSpace=wrap;html=1;" parent="1" vertex="1">
          <mxGeometry x="961.54" y="335" width="62.15" height="20" as="geometry" />
        </mxCell>
        <mxCell id="m9lJWsYRmjQU2goQzDvf-37" value="" style="rounded=0;whiteSpace=wrap;html=1;" parent="1" vertex="1">
          <mxGeometry x="961.54" y="405" width="62.15" height="20" as="geometry" />
        </mxCell>
        <mxCell id="m9lJWsYRmjQU2goQzDvf-38" value="" style="rounded=0;whiteSpace=wrap;html=1;" parent="1" vertex="1">
          <mxGeometry x="796.54" y="335" width="62.15" height="20" as="geometry" />
        </mxCell>
        <mxCell id="m9lJWsYRmjQU2goQzDvf-39" value="" style="endArrow=none;html=1;rounded=0;" parent="1" edge="1">
          <mxGeometry width="50" height="50" relative="1" as="geometry">
            <mxPoint x="891.54" y="360" as="sourcePoint" />
            <mxPoint x="761.54" y="360" as="targetPoint" />
            <Array as="points">
              <mxPoint x="861.54" y="330" />
              <mxPoint x="791.54" y="330" />
            </Array>
          </mxGeometry>
        </mxCell>
        <mxCell id="m9lJWsYRmjQU2goQzDvf-40" value="" style="rounded=0;whiteSpace=wrap;html=1;" parent="1" vertex="1">
          <mxGeometry x="796.54" y="405" width="62.15" height="20" as="geometry" />
        </mxCell>
        <mxCell id="m9lJWsYRmjQU2goQzDvf-41" value="" style="endArrow=none;html=1;rounded=0;" parent="1" edge="1">
          <mxGeometry width="50" height="50" relative="1" as="geometry">
            <mxPoint x="892.54" y="400" as="sourcePoint" />
            <mxPoint x="761.54" y="400" as="targetPoint" />
            <Array as="points">
              <mxPoint x="862.6099999999999" y="430" />
              <mxPoint x="792.6099999999999" y="430" />
            </Array>
          </mxGeometry>
        </mxCell>
        <mxCell id="m9lJWsYRmjQU2goQzDvf-42" value="" style="endArrow=none;html=1;rounded=0;" parent="1" edge="1">
          <mxGeometry width="50" height="50" relative="1" as="geometry">
            <mxPoint x="365" y="200" as="sourcePoint" />
            <mxPoint x="385" y="200" as="targetPoint" />
          </mxGeometry>
        </mxCell>
        <mxCell id="m9lJWsYRmjQU2goQzDvf-43" value="" style="endArrow=none;html=1;rounded=0;" parent="1" edge="1">
          <mxGeometry width="50" height="50" relative="1" as="geometry">
            <mxPoint x="365" y="195" as="sourcePoint" />
            <mxPoint x="365" y="205" as="targetPoint" />
          </mxGeometry>
        </mxCell>
        <mxCell id="m9lJWsYRmjQU2goQzDvf-44" value="" style="endArrow=none;html=1;rounded=0;" parent="1" edge="1">
          <mxGeometry width="50" height="50" relative="1" as="geometry">
            <mxPoint x="435" y="200" as="sourcePoint" />
            <mxPoint x="455" y="200" as="targetPoint" />
          </mxGeometry>
        </mxCell>
        <mxCell id="m9lJWsYRmjQU2goQzDvf-45" value="" style="endArrow=none;html=1;rounded=0;" parent="1" edge="1">
          <mxGeometry width="50" height="50" relative="1" as="geometry">
            <mxPoint x="455" y="195" as="sourcePoint" />
            <mxPoint x="455" y="205" as="targetPoint" />
          </mxGeometry>
        </mxCell>
        <mxCell id="m9lJWsYRmjQU2goQzDvf-46" value="" style="endArrow=none;html=1;rounded=0;" parent="1" edge="1">
          <mxGeometry width="50" height="50" relative="1" as="geometry">
            <mxPoint x="825" y="240" as="sourcePoint" />
            <mxPoint x="845" y="240" as="targetPoint" />
          </mxGeometry>
        </mxCell>
        <mxCell id="m9lJWsYRmjQU2goQzDvf-47" value="" style="endArrow=none;html=1;rounded=0;" parent="1" edge="1">
          <mxGeometry width="50" height="50" relative="1" as="geometry">
            <mxPoint x="825" y="235" as="sourcePoint" />
            <mxPoint x="825" y="245" as="targetPoint" />
          </mxGeometry>
        </mxCell>
        <mxCell id="m9lJWsYRmjQU2goQzDvf-48" value="" style="endArrow=none;html=1;rounded=0;" parent="1" edge="1">
          <mxGeometry width="50" height="50" relative="1" as="geometry">
            <mxPoint x="890" y="200" as="sourcePoint" />
            <mxPoint x="910" y="200" as="targetPoint" />
          </mxGeometry>
        </mxCell>
        <mxCell id="m9lJWsYRmjQU2goQzDvf-49" value="" style="endArrow=none;html=1;rounded=0;" parent="1" edge="1">
          <mxGeometry width="50" height="50" relative="1" as="geometry">
            <mxPoint x="910" y="195" as="sourcePoint" />
            <mxPoint x="910" y="205" as="targetPoint" />
          </mxGeometry>
        </mxCell>
        <mxCell id="m9lJWsYRmjQU2goQzDvf-50" value="" style="endArrow=none;html=1;rounded=0;" parent="1" edge="1">
          <mxGeometry width="50" height="50" relative="1" as="geometry">
            <mxPoint x="856.1999999999999" y="330" as="sourcePoint" />
            <mxPoint x="876.1999999999999" y="330" as="targetPoint" />
          </mxGeometry>
        </mxCell>
        <mxCell id="m9lJWsYRmjQU2goQzDvf-51" value="" style="endArrow=none;html=1;rounded=0;" parent="1" edge="1">
          <mxGeometry width="50" height="50" relative="1" as="geometry">
            <mxPoint x="876.1999999999999" y="325" as="sourcePoint" />
            <mxPoint x="876.1999999999999" y="335" as="targetPoint" />
          </mxGeometry>
        </mxCell>
        <mxCell id="m9lJWsYRmjQU2goQzDvf-52" value="" style="endArrow=none;html=1;rounded=0;" parent="1" edge="1">
          <mxGeometry width="50" height="50" relative="1" as="geometry">
            <mxPoint x="776.54" y="430" as="sourcePoint" />
            <mxPoint x="796.54" y="430" as="targetPoint" />
          </mxGeometry>
        </mxCell>
        <mxCell id="m9lJWsYRmjQU2goQzDvf-53" value="" style="endArrow=none;html=1;rounded=0;" parent="1" edge="1">
          <mxGeometry width="50" height="50" relative="1" as="geometry">
            <mxPoint x="776.54" y="425" as="sourcePoint" />
            <mxPoint x="776.54" y="435" as="targetPoint" />
          </mxGeometry>
        </mxCell>
        <mxCell id="m9lJWsYRmjQU2goQzDvf-56" value="" style="endArrow=none;html=1;rounded=0;" parent="1" edge="1">
          <mxGeometry width="50" height="50" relative="1" as="geometry">
            <mxPoint x="1256.54" y="360" as="sourcePoint" />
            <mxPoint x="1276.54" y="360" as="targetPoint" />
          </mxGeometry>
        </mxCell>
        <mxCell id="m9lJWsYRmjQU2goQzDvf-57" value="" style="endArrow=none;html=1;rounded=0;" parent="1" edge="1">
          <mxGeometry width="50" height="50" relative="1" as="geometry">
            <mxPoint x="1276.54" y="355" as="sourcePoint" />
            <mxPoint x="1276.54" y="365" as="targetPoint" />
          </mxGeometry>
        </mxCell>
        <mxCell id="m9lJWsYRmjQU2goQzDvf-58" value="" style="endArrow=none;html=1;rounded=0;" parent="1" edge="1">
          <mxGeometry width="50" height="50" relative="1" as="geometry">
            <mxPoint x="1415.69" y="360" as="sourcePoint" />
            <mxPoint x="1435.69" y="360" as="targetPoint" />
          </mxGeometry>
        </mxCell>
        <mxCell id="m9lJWsYRmjQU2goQzDvf-59" value="" style="endArrow=none;html=1;rounded=0;" parent="1" edge="1">
          <mxGeometry width="50" height="50" relative="1" as="geometry">
            <mxPoint x="1435.69" y="355" as="sourcePoint" />
            <mxPoint x="1435.69" y="365" as="targetPoint" />
          </mxGeometry>
        </mxCell>
        <mxCell id="m9lJWsYRmjQU2goQzDvf-60" value="" style="endArrow=none;html=1;rounded=0;" parent="1" edge="1">
          <mxGeometry width="50" height="50" relative="1" as="geometry">
            <mxPoint x="1346.54" y="395" as="sourcePoint" />
            <mxPoint x="1366.54" y="395" as="targetPoint" />
          </mxGeometry>
        </mxCell>
        <mxCell id="m9lJWsYRmjQU2goQzDvf-61" value="" style="endArrow=none;html=1;rounded=0;" parent="1" edge="1">
          <mxGeometry width="50" height="50" relative="1" as="geometry">
            <mxPoint x="1346.54" y="390" as="sourcePoint" />
            <mxPoint x="1346.54" y="400" as="targetPoint" />
          </mxGeometry>
        </mxCell>
        <mxCell id="m9lJWsYRmjQU2goQzDvf-62" value="" style="endArrow=none;html=1;rounded=0;" parent="1" edge="1">
          <mxGeometry width="50" height="50" relative="1" as="geometry">
            <mxPoint x="751.54" y="400" as="sourcePoint" />
            <mxPoint x="731.54" y="360" as="targetPoint" />
          </mxGeometry>
        </mxCell>
        <mxCell id="m9lJWsYRmjQU2goQzDvf-63" value="" style="endArrow=none;html=1;rounded=0;" parent="1" edge="1">
          <mxGeometry width="50" height="50" relative="1" as="geometry">
            <mxPoint x="701.54" y="400" as="sourcePoint" />
            <mxPoint x="721.54" y="360" as="targetPoint" />
          </mxGeometry>
        </mxCell>
        <mxCell id="m9lJWsYRmjQU2goQzDvf-64" value="" style="rounded=0;whiteSpace=wrap;html=1;" parent="1" vertex="1">
          <mxGeometry x="561.54" y="335" width="62.15" height="20" as="geometry" />
        </mxCell>
        <mxCell id="m9lJWsYRmjQU2goQzDvf-65" value="" style="rounded=0;whiteSpace=wrap;html=1;" parent="1" vertex="1">
          <mxGeometry x="561.54" y="405" width="62.15" height="20" as="geometry" />
        </mxCell>
        <mxCell id="m9lJWsYRmjQU2goQzDvf-66" value="" style="endArrow=none;html=1;rounded=0;" parent="1" edge="1">
          <mxGeometry width="50" height="50" relative="1" as="geometry">
            <mxPoint x="901.54" y="400" as="sourcePoint" />
            <mxPoint x="921.54" y="360" as="targetPoint" />
          </mxGeometry>
        </mxCell>
        <mxCell id="m9lJWsYRmjQU2goQzDvf-67" value="" style="endArrow=none;html=1;rounded=0;" parent="1" edge="1">
          <mxGeometry width="50" height="50" relative="1" as="geometry">
            <mxPoint x="921.54" y="400" as="sourcePoint" />
            <mxPoint x="901.54" y="360" as="targetPoint" />
          </mxGeometry>
        </mxCell>
        <mxCell id="m9lJWsYRmjQU2goQzDvf-68" value="" style="rounded=0;whiteSpace=wrap;html=1;" parent="1" vertex="1">
          <mxGeometry x="321.54" y="335" width="62.15" height="20" as="geometry" />
        </mxCell>
        <mxCell id="m9lJWsYRmjQU2goQzDvf-69" value="" style="rounded=0;whiteSpace=wrap;html=1;" parent="1" vertex="1">
          <mxGeometry x="321.54" y="405" width="62.15" height="20" as="geometry" />
        </mxCell>
        <mxCell id="m9lJWsYRmjQU2goQzDvf-70" value="" style="rounded=0;whiteSpace=wrap;html=1;" parent="1" vertex="1">
          <mxGeometry x="493.08" y="335" width="20" height="20" as="geometry" />
        </mxCell>
        <mxCell id="m9lJWsYRmjQU2goQzDvf-71" value="" style="rounded=0;whiteSpace=wrap;html=1;" parent="1" vertex="1">
          <mxGeometry x="493.08" y="405" width="20" height="20" as="geometry" />
        </mxCell>
        <mxCell id="m9lJWsYRmjQU2goQzDvf-72" value="" style="rounded=0;whiteSpace=wrap;html=1;" parent="1" vertex="1">
          <mxGeometry x="433.08000000000004" y="335" width="20" height="20" as="geometry" />
        </mxCell>
        <mxCell id="m9lJWsYRmjQU2goQzDvf-73" value="" style="rounded=0;whiteSpace=wrap;html=1;" parent="1" vertex="1">
          <mxGeometry x="433.08000000000004" y="405" width="20" height="20" as="geometry" />
        </mxCell>
        <mxCell id="m9lJWsYRmjQU2goQzDvf-74" value="" style="rounded=0;whiteSpace=wrap;html=1;" parent="1" vertex="1">
          <mxGeometry x="201.54000000000002" y="335" width="62.15" height="20" as="geometry" />
        </mxCell>
        <mxCell id="m9lJWsYRmjQU2goQzDvf-75" value="" style="rounded=0;whiteSpace=wrap;html=1;" parent="1" vertex="1">
          <mxGeometry x="201.54000000000002" y="405" width="62.15" height="20" as="geometry" />
        </mxCell>
        <mxCell id="m9lJWsYRmjQU2goQzDvf-76" value="" style="endArrow=none;html=1;rounded=0;" parent="1" edge="1">
          <mxGeometry width="50" height="50" relative="1" as="geometry">
            <mxPoint x="196.54000000000002" y="400" as="sourcePoint" />
            <mxPoint x="176.54000000000002" y="400" as="targetPoint" />
          </mxGeometry>
        </mxCell>
        <mxCell id="m9lJWsYRmjQU2goQzDvf-77" value="" style="endArrow=none;html=1;rounded=0;" parent="1" edge="1">
          <mxGeometry width="50" height="50" relative="1" as="geometry">
            <mxPoint x="176.54000000000002" y="395" as="sourcePoint" />
            <mxPoint x="176.54000000000002" y="405" as="targetPoint" />
          </mxGeometry>
        </mxCell>
        <mxCell id="m9lJWsYRmjQU2goQzDvf-78" value="&lt;span style=&quot;font-size: 15px;&quot;&gt;&lt;b&gt;幽明結界線&lt;/b&gt;&lt;/span&gt;" style="text;strokeColor=none;align=center;fillColor=none;html=1;verticalAlign=middle;whiteSpace=wrap;rounded=0;" parent="1" vertex="1">
          <mxGeometry x="1467" y="380" width="85" height="30" as="geometry" />
        </mxCell>
        <mxCell id="m9lJWsYRmjQU2goQzDvf-79" value="&lt;font style=&quot;font-size: 10px;&quot;&gt;飯岡・八雲邸方面&lt;/font&gt;" style="text;strokeColor=none;align=center;fillColor=none;html=1;verticalAlign=middle;whiteSpace=wrap;rounded=0;" parent="1" vertex="1">
          <mxGeometry x="1470" y="350" width="118" height="30" as="geometry" />
        </mxCell>
        <mxCell id="m9lJWsYRmjQU2goQzDvf-80" value="&lt;font style=&quot;font-size: 10px;&quot;&gt;幽明西三条・西行妖方面&lt;/font&gt;" style="text;strokeColor=none;align=center;fillColor=none;html=1;verticalAlign=middle;whiteSpace=wrap;rounded=0;" parent="1" vertex="1">
          <mxGeometry x="55" y="345" width="118" height="30" as="geometry" />
        </mxCell>
        <mxCell id="m9lJWsYRmjQU2goQzDvf-81" value="&lt;span style=&quot;font-size: 15px;&quot;&gt;&lt;b&gt;←冥界線 ❘ 幽明結界線→&lt;/b&gt;&lt;/span&gt;" style="text;strokeColor=none;align=center;fillColor=none;html=1;verticalAlign=middle;whiteSpace=wrap;rounded=0;" parent="1" vertex="1">
          <mxGeometry x="157.72" y="305" width="177.85" height="30" as="geometry" />
        </mxCell>
        <mxCell id="m9lJWsYRmjQU2goQzDvf-82" value="宇佐見" style="text;whiteSpace=wrap;html=1;align=center;" parent="1" vertex="1">
          <mxGeometry x="1365.08" y="420" width="54.08" height="28" as="geometry" />
        </mxCell>
        <mxCell id="m9lJWsYRmjQU2goQzDvf-84" value="北宇佐見（信）" style="text;whiteSpace=wrap;html=1;align=center;" parent="1" vertex="1">
          <mxGeometry x="1165.03" y="401" width="89.08" height="28" as="geometry" />
        </mxCell>
        <mxCell id="m9lJWsYRmjQU2goQzDvf-85" value="メリー湿原" style="text;whiteSpace=wrap;html=1;align=center;" parent="1" vertex="1">
          <mxGeometry x="960.61" y="425" width="62.92" height="28" as="geometry" />
        </mxCell>
        <mxCell id="m9lJWsYRmjQU2goQzDvf-86" value="冥界口" style="text;whiteSpace=wrap;html=1;align=center;" parent="1" vertex="1">
          <mxGeometry x="800.57" y="435" width="54.08" height="28" as="geometry" />
        </mxCell>
        <mxCell id="m9lJWsYRmjQU2goQzDvf-87" value="浜川幽別" style="text;whiteSpace=wrap;html=1;align=center;" parent="1" vertex="1">
          <mxGeometry x="565.57" y="425" width="54.08" height="28" as="geometry" />
        </mxCell>
        <mxCell id="m9lJWsYRmjQU2goQzDvf-88" value="三途定点" style="text;whiteSpace=wrap;html=1;align=center;" parent="1" vertex="1">
          <mxGeometry x="476.04" y="425" width="54.08" height="28" as="geometry" />
        </mxCell>
        <mxCell id="m9lJWsYRmjQU2goQzDvf-89" value="彼岸定点" style="text;whiteSpace=wrap;html=1;align=center;" parent="1" vertex="1">
          <mxGeometry x="416.04" y="425" width="54.08" height="28" as="geometry" />
        </mxCell>
        <mxCell id="m9lJWsYRmjQU2goQzDvf-90" value="北幌" style="text;whiteSpace=wrap;html=1;align=center;" parent="1" vertex="1">
          <mxGeometry x="335.57" y="425" width="34.08" height="28" as="geometry" />
        </mxCell>
        <mxCell id="m9lJWsYRmjQU2goQzDvf-91" value="幽明" style="text;whiteSpace=wrap;html=1;align=center;" parent="1" vertex="1">
          <mxGeometry x="205.57" y="425" width="54.08" height="28" as="geometry" />
        </mxCell>
        <mxCell id="m9lJWsYRmjQU2goQzDvf-92" value="" style="endArrow=none;html=1;rounded=0;strokeWidth=3;opacity=50;strokeColor=#00FF00;" parent="1" edge="1">
          <mxGeometry width="50" height="50" relative="1" as="geometry">
            <mxPoint x="1040" y="359.83" as="sourcePoint" />
            <mxPoint x="1120" y="360" as="targetPoint" />
          </mxGeometry>
        </mxCell>
        <mxCell id="m9lJWsYRmjQU2goQzDvf-93" value="" style="endArrow=none;html=1;rounded=0;strokeWidth=3;opacity=50;strokeColor=#00FF00;" parent="1" edge="1">
          <mxGeometry width="50" height="50" relative="1" as="geometry">
            <mxPoint x="1040" y="400" as="sourcePoint" />
            <mxPoint x="1120" y="400.17" as="targetPoint" />
          </mxGeometry>
        </mxCell>
        <mxCell id="m9lJWsYRmjQU2goQzDvf-95" value="&lt;font color=&quot;#0000ff&quot; style=&quot;font-size: 10px;&quot;&gt;幽明トンネル&lt;/font&gt;" style="text;html=1;align=center;verticalAlign=middle;whiteSpace=wrap;rounded=0;" parent="1" vertex="1">
          <mxGeometry x="430" y="310" width="85" height="15" as="geometry" />
        </mxCell>
        <mxCell id="U_RFVBzudO1FIwCkmDKW-1" value="" style="endArrow=none;html=1;rounded=0;" edge="1" parent="1">
          <mxGeometry width="50" height="50" relative="1" as="geometry">
            <mxPoint x="789" y="530" as="sourcePoint" />
            <mxPoint x="1579" y="560" as="targetPoint" />
            <Array as="points">
              <mxPoint x="819" y="560" />
            </Array>
          </mxGeometry>
        </mxCell>
        <mxCell id="U_RFVBzudO1FIwCkmDKW-2" value="" style="rounded=0;whiteSpace=wrap;html=1;" vertex="1" parent="1">
          <mxGeometry x="1475.9199999999998" y="535" width="47.15" height="20" as="geometry" />
        </mxCell>
        <mxCell id="U_RFVBzudO1FIwCkmDKW-4" value="" style="rounded=0;whiteSpace=wrap;html=1;" vertex="1" parent="1">
          <mxGeometry x="1373.26" y="565" width="47.15" height="20" as="geometry" />
        </mxCell>
        <mxCell id="U_RFVBzudO1FIwCkmDKW-5" value="" style="rounded=0;whiteSpace=wrap;html=1;" vertex="1" parent="1">
          <mxGeometry x="1254" y="535" width="47.15" height="20" as="geometry" />
        </mxCell>
        <mxCell id="U_RFVBzudO1FIwCkmDKW-6" value="" style="endArrow=none;html=1;rounded=0;" edge="1" parent="1">
          <mxGeometry width="50" height="50" relative="1" as="geometry">
            <mxPoint x="1219" y="560" as="sourcePoint" />
            <mxPoint x="1334" y="560" as="targetPoint" />
            <Array as="points">
              <mxPoint x="1249" y="530" />
              <mxPoint x="1304" y="530" />
            </Array>
          </mxGeometry>
        </mxCell>
        <mxCell id="U_RFVBzudO1FIwCkmDKW-7" value="" style="rounded=0;whiteSpace=wrap;html=1;" vertex="1" parent="1">
          <mxGeometry x="1149" y="565" width="47.15" height="20" as="geometry" />
        </mxCell>
        <mxCell id="U_RFVBzudO1FIwCkmDKW-8" value="" style="rounded=0;whiteSpace=wrap;html=1;" vertex="1" parent="1">
          <mxGeometry x="1079" y="535" width="47.15" height="20" as="geometry" />
        </mxCell>
        <mxCell id="U_RFVBzudO1FIwCkmDKW-9" value="" style="rounded=0;whiteSpace=wrap;html=1;" vertex="1" parent="1">
          <mxGeometry x="1004" y="535" width="47.15" height="20" as="geometry" />
        </mxCell>
        <mxCell id="U_RFVBzudO1FIwCkmDKW-10" value="" style="rounded=0;whiteSpace=wrap;html=1;" vertex="1" parent="1">
          <mxGeometry x="932.4200000000001" y="565" width="47.15" height="20" as="geometry" />
        </mxCell>
        <mxCell id="U_RFVBzudO1FIwCkmDKW-11" value="" style="rounded=0;whiteSpace=wrap;html=1;" vertex="1" parent="1">
          <mxGeometry x="824" y="535" width="47.15" height="20" as="geometry" />
        </mxCell>
        <mxCell id="U_RFVBzudO1FIwCkmDKW-12" value="" style="endArrow=none;html=1;rounded=0;" edge="1" parent="1">
          <mxGeometry width="50" height="50" relative="1" as="geometry">
            <mxPoint x="664" y="530" as="sourcePoint" />
            <mxPoint x="909" y="560" as="targetPoint" />
            <Array as="points">
              <mxPoint x="689" y="550" />
              <mxPoint x="739" y="550" />
              <mxPoint x="759" y="530" />
              <mxPoint x="879" y="530" />
            </Array>
          </mxGeometry>
        </mxCell>
        <mxCell id="U_RFVBzudO1FIwCkmDKW-13" value="" style="rounded=0;whiteSpace=wrap;html=1;" vertex="1" parent="1">
          <mxGeometry x="689" y="505" width="47.15" height="20" as="geometry" />
        </mxCell>
        <mxCell id="U_RFVBzudO1FIwCkmDKW-14" value="" style="endArrow=none;html=1;rounded=0;" edge="1" parent="1">
          <mxGeometry width="50" height="50" relative="1" as="geometry">
            <mxPoint x="215" y="550" as="sourcePoint" />
            <mxPoint x="759" y="530" as="targetPoint" />
            <Array as="points">
              <mxPoint x="599" y="550" />
              <mxPoint x="619" y="530" />
            </Array>
          </mxGeometry>
        </mxCell>
        <mxCell id="U_RFVBzudO1FIwCkmDKW-15" value="" style="rounded=0;whiteSpace=wrap;html=1;" vertex="1" parent="1">
          <mxGeometry x="689" y="555" width="47.15" height="20" as="geometry" />
        </mxCell>
        <mxCell id="U_RFVBzudO1FIwCkmDKW-16" value="" style="rounded=0;whiteSpace=wrap;html=1;" vertex="1" parent="1">
          <mxGeometry x="557.47" y="505" width="47.15" height="20" as="geometry" />
        </mxCell>
        <mxCell id="U_RFVBzudO1FIwCkmDKW-17" value="" style="endArrow=none;html=1;rounded=0;" edge="1" parent="1">
          <mxGeometry width="50" height="50" relative="1" as="geometry">
            <mxPoint x="524" y="550" as="sourcePoint" />
            <mxPoint x="619" y="530" as="targetPoint" />
            <Array as="points">
              <mxPoint x="544" y="530" />
            </Array>
          </mxGeometry>
        </mxCell>
        <mxCell id="U_RFVBzudO1FIwCkmDKW-18" value="" style="rounded=0;whiteSpace=wrap;html=1;" vertex="1" parent="1">
          <mxGeometry x="542.69" y="555" width="47.15" height="20" as="geometry" />
        </mxCell>
        <mxCell id="U_RFVBzudO1FIwCkmDKW-19" value="" style="rounded=0;whiteSpace=wrap;html=1;" vertex="1" parent="1">
          <mxGeometry x="450.53999999999996" y="555" width="47.15" height="20" as="geometry" />
        </mxCell>
        <mxCell id="U_RFVBzudO1FIwCkmDKW-20" value="" style="rounded=0;whiteSpace=wrap;html=1;" vertex="1" parent="1">
          <mxGeometry x="380.53999999999996" y="525" width="47.15" height="20" as="geometry" />
        </mxCell>
        <mxCell id="U_RFVBzudO1FIwCkmDKW-21" value="" style="rounded=0;whiteSpace=wrap;html=1;" vertex="1" parent="1">
          <mxGeometry x="309" y="525" width="47.15" height="20" as="geometry" />
        </mxCell>
        <mxCell id="U_RFVBzudO1FIwCkmDKW-22" value="" style="rounded=0;whiteSpace=wrap;html=1;" vertex="1" parent="1">
          <mxGeometry x="235" y="555" width="47.15" height="20" as="geometry" />
        </mxCell>
        <mxCell id="U_RFVBzudO1FIwCkmDKW-23" value="" style="endArrow=none;html=1;rounded=0;" edge="1" parent="1">
          <mxGeometry width="50" height="50" relative="1" as="geometry">
            <mxPoint x="60" y="550" as="sourcePoint" />
            <mxPoint x="215" y="550" as="targetPoint" />
            <Array as="points">
              <mxPoint x="120" y="550" />
              <mxPoint x="135" y="535" />
              <mxPoint x="200" y="535" />
            </Array>
          </mxGeometry>
        </mxCell>
        <mxCell id="U_RFVBzudO1FIwCkmDKW-24" value="" style="endArrow=none;html=1;rounded=0;" edge="1" parent="1">
          <mxGeometry width="50" height="50" relative="1" as="geometry">
            <mxPoint x="120" y="550" as="sourcePoint" />
            <mxPoint x="215" y="550" as="targetPoint" />
            <Array as="points">
              <mxPoint x="135" y="565" />
              <mxPoint x="200" y="565" />
            </Array>
          </mxGeometry>
        </mxCell>
        <mxCell id="U_RFVBzudO1FIwCkmDKW-25" value="" style="rounded=0;whiteSpace=wrap;html=1;" vertex="1" parent="1">
          <mxGeometry x="145" y="510" width="47.15" height="20" as="geometry" />
        </mxCell>
        <mxCell id="U_RFVBzudO1FIwCkmDKW-26" value="" style="rounded=0;whiteSpace=wrap;html=1;" vertex="1" parent="1">
          <mxGeometry x="145" y="570" width="47.15" height="20" as="geometry" />
        </mxCell>
        <mxCell id="U_RFVBzudO1FIwCkmDKW-27" value="" style="rounded=0;whiteSpace=wrap;html=1;" vertex="1" parent="1">
          <mxGeometry x="65" y="555" width="47.15" height="20" as="geometry" />
        </mxCell>
        <mxCell id="U_RFVBzudO1FIwCkmDKW-28" value="" style="endArrow=none;html=1;rounded=0;" edge="1" parent="1">
          <mxGeometry width="50" height="50" relative="1" as="geometry">
            <mxPoint x="60" y="545" as="sourcePoint" />
            <mxPoint x="60" y="555" as="targetPoint" />
          </mxGeometry>
        </mxCell>
        <mxCell id="U_RFVBzudO1FIwCkmDKW-29" value="&lt;span style=&quot;font-size: 15px;&quot;&gt;&lt;b&gt;冥界線&lt;/b&gt;&lt;/span&gt;" style="text;strokeColor=none;align=center;fillColor=none;html=1;verticalAlign=middle;whiteSpace=wrap;rounded=0;" vertex="1" parent="1">
          <mxGeometry x="1560" y="530" width="60" height="30" as="geometry" />
        </mxCell>
        <mxCell id="U_RFVBzudO1FIwCkmDKW-30" value="幽明西三条" style="text;whiteSpace=wrap;html=1;align=center;" vertex="1" parent="1">
          <mxGeometry x="1467" y="560" width="65" height="28" as="geometry" />
        </mxCell>
        <mxCell id="U_RFVBzudO1FIwCkmDKW-31" value="新幽明" style="text;whiteSpace=wrap;html=1;align=center;" vertex="1" parent="1">
          <mxGeometry x="1370" y="585" width="54.08" height="28" as="geometry" />
        </mxCell>
        <mxCell id="U_RFVBzudO1FIwCkmDKW-32" value="西行妖" style="text;whiteSpace=wrap;html=1;align=center;" vertex="1" parent="1">
          <mxGeometry x="61.53" y="575" width="54.08" height="28" as="geometry" />
        </mxCell>
        <mxCell id="U_RFVBzudO1FIwCkmDKW-33" value="白玉楼" style="text;whiteSpace=wrap;html=1;align=center;" vertex="1" parent="1">
          <mxGeometry x="141.53" y="590" width="54.08" height="28" as="geometry" />
        </mxCell>
        <mxCell id="U_RFVBzudO1FIwCkmDKW-34" value="白玉階段" style="text;whiteSpace=wrap;html=1;align=center;" vertex="1" parent="1">
          <mxGeometry x="231.53" y="575" width="54.08" height="28" as="geometry" />
        </mxCell>
        <mxCell id="U_RFVBzudO1FIwCkmDKW-35" value="空川" style="text;whiteSpace=wrap;html=1;align=center;" vertex="1" parent="1">
          <mxGeometry x="305.53" y="551" width="54.08" height="28" as="geometry" />
        </mxCell>
        <mxCell id="U_RFVBzudO1FIwCkmDKW-36" value="太田" style="text;whiteSpace=wrap;html=1;align=center;" vertex="1" parent="1">
          <mxGeometry x="377.07" y="551" width="54.08" height="28" as="geometry" />
        </mxCell>
        <mxCell id="U_RFVBzudO1FIwCkmDKW-37" value="北中里" style="text;whiteSpace=wrap;html=1;align=center;" vertex="1" parent="1">
          <mxGeometry x="445.46" y="575" width="54.08" height="28" as="geometry" />
        </mxCell>
        <mxCell id="U_RFVBzudO1FIwCkmDKW-38" value="冥界中里" style="text;whiteSpace=wrap;html=1;align=center;" vertex="1" parent="1">
          <mxGeometry x="539.22" y="575" width="54.08" height="28" as="geometry" />
        </mxCell>
        <mxCell id="U_RFVBzudO1FIwCkmDKW-39" value="冥界上川" style="text;whiteSpace=wrap;html=1;align=center;" vertex="1" parent="1">
          <mxGeometry x="685.54" y="575" width="54.08" height="28" as="geometry" />
        </mxCell>
        <mxCell id="U_RFVBzudO1FIwCkmDKW-40" value="幽明白滝" style="text;whiteSpace=wrap;html=1;align=center;" vertex="1" parent="1">
          <mxGeometry x="820.54" y="561" width="54.08" height="28" as="geometry" />
        </mxCell>
        <mxCell id="U_RFVBzudO1FIwCkmDKW-41" value="幽明池田" style="text;whiteSpace=wrap;html=1;align=center;" vertex="1" parent="1">
          <mxGeometry x="928.96" y="585" width="54.08" height="28" as="geometry" />
        </mxCell>
        <mxCell id="U_RFVBzudO1FIwCkmDKW-42" value="メルラン" style="text;whiteSpace=wrap;html=1;align=center;" vertex="1" parent="1">
          <mxGeometry x="1000.54" y="560" width="54.08" height="28" as="geometry" />
        </mxCell>
        <mxCell id="U_RFVBzudO1FIwCkmDKW-43" value="東メルラン" style="text;whiteSpace=wrap;html=1;align=center;" vertex="1" parent="1">
          <mxGeometry x="1070.27" y="560" width="64.62" height="28" as="geometry" />
        </mxCell>
        <mxCell id="U_RFVBzudO1FIwCkmDKW-44" value="桜狩" style="text;whiteSpace=wrap;html=1;align=center;" vertex="1" parent="1">
          <mxGeometry x="1145.54" y="585" width="54.08" height="28" as="geometry" />
        </mxCell>
        <mxCell id="U_RFVBzudO1FIwCkmDKW-45" value="永江" style="text;whiteSpace=wrap;html=1;align=center;" vertex="1" parent="1">
          <mxGeometry x="1250.54" y="560" width="54.08" height="28" as="geometry" />
        </mxCell>
        <mxCell id="U_RFVBzudO1FIwCkmDKW-46" value="&lt;font style=&quot;font-size: 10px;&quot;&gt;幽明・八雲邸方面&lt;/font&gt;" style="text;strokeColor=none;align=center;fillColor=none;html=1;verticalAlign=middle;whiteSpace=wrap;rounded=0;" vertex="1" parent="1">
          <mxGeometry x="1535" y="558" width="100" height="30" as="geometry" />
        </mxCell>
        <mxCell id="U_RFVBzudO1FIwCkmDKW-47" value="" style="endArrow=none;html=1;rounded=0;" edge="1" parent="1">
          <mxGeometry width="50" height="50" relative="1" as="geometry">
            <mxPoint x="1231.54" y="530" as="sourcePoint" />
            <mxPoint x="1251.54" y="530" as="targetPoint" />
          </mxGeometry>
        </mxCell>
        <mxCell id="U_RFVBzudO1FIwCkmDKW-48" value="" style="endArrow=none;html=1;rounded=0;" edge="1" parent="1">
          <mxGeometry width="50" height="50" relative="1" as="geometry">
            <mxPoint x="1231.54" y="525" as="sourcePoint" />
            <mxPoint x="1231.54" y="535" as="targetPoint" />
          </mxGeometry>
        </mxCell>
        <mxCell id="U_RFVBzudO1FIwCkmDKW-49" value="" style="endArrow=none;html=1;rounded=0;" edge="1" parent="1">
          <mxGeometry width="50" height="50" relative="1" as="geometry">
            <mxPoint x="1300" y="530" as="sourcePoint" />
            <mxPoint x="1320" y="530" as="targetPoint" />
          </mxGeometry>
        </mxCell>
        <mxCell id="U_RFVBzudO1FIwCkmDKW-50" value="" style="endArrow=none;html=1;rounded=0;" edge="1" parent="1">
          <mxGeometry width="50" height="50" relative="1" as="geometry">
            <mxPoint x="1320" y="525" as="sourcePoint" />
            <mxPoint x="1320" y="535" as="targetPoint" />
          </mxGeometry>
        </mxCell>
        <mxCell id="U_RFVBzudO1FIwCkmDKW-51" value="" style="endArrow=none;html=1;rounded=0;" edge="1" parent="1">
          <mxGeometry width="50" height="50" relative="1" as="geometry">
            <mxPoint x="871.15" y="530" as="sourcePoint" />
            <mxPoint x="891.15" y="530" as="targetPoint" />
          </mxGeometry>
        </mxCell>
        <mxCell id="U_RFVBzudO1FIwCkmDKW-52" value="" style="endArrow=none;html=1;rounded=0;" edge="1" parent="1">
          <mxGeometry width="50" height="50" relative="1" as="geometry">
            <mxPoint x="891.15" y="525" as="sourcePoint" />
            <mxPoint x="891.15" y="535" as="targetPoint" />
          </mxGeometry>
        </mxCell>
        <mxCell id="U_RFVBzudO1FIwCkmDKW-53" value="" style="endArrow=none;html=1;rounded=0;" edge="1" parent="1">
          <mxGeometry width="50" height="50" relative="1" as="geometry">
            <mxPoint x="735" y="550" as="sourcePoint" />
            <mxPoint x="755" y="550" as="targetPoint" />
          </mxGeometry>
        </mxCell>
        <mxCell id="U_RFVBzudO1FIwCkmDKW-54" value="" style="endArrow=none;html=1;rounded=0;" edge="1" parent="1">
          <mxGeometry width="50" height="50" relative="1" as="geometry">
            <mxPoint x="755" y="545" as="sourcePoint" />
            <mxPoint x="755" y="555" as="targetPoint" />
          </mxGeometry>
        </mxCell>
        <mxCell id="U_RFVBzudO1FIwCkmDKW-55" value="" style="endArrow=none;html=1;rounded=0;" edge="1" parent="1">
          <mxGeometry width="50" height="50" relative="1" as="geometry">
            <mxPoint x="593.3" y="550" as="sourcePoint" />
            <mxPoint x="613.3" y="550" as="targetPoint" />
          </mxGeometry>
        </mxCell>
        <mxCell id="U_RFVBzudO1FIwCkmDKW-56" value="" style="endArrow=none;html=1;rounded=0;" edge="1" parent="1">
          <mxGeometry width="50" height="50" relative="1" as="geometry">
            <mxPoint x="613.3" y="545" as="sourcePoint" />
            <mxPoint x="613.3" y="555" as="targetPoint" />
          </mxGeometry>
        </mxCell>
        <mxCell id="U_RFVBzudO1FIwCkmDKW-57" value="" style="endArrow=none;html=1;rounded=0;" edge="1" parent="1">
          <mxGeometry width="50" height="50" relative="1" as="geometry">
            <mxPoint x="195.61" y="535" as="sourcePoint" />
            <mxPoint x="215.61" y="535" as="targetPoint" />
          </mxGeometry>
        </mxCell>
        <mxCell id="U_RFVBzudO1FIwCkmDKW-58" value="" style="endArrow=none;html=1;rounded=0;" edge="1" parent="1">
          <mxGeometry width="50" height="50" relative="1" as="geometry">
            <mxPoint x="215.61" y="530" as="sourcePoint" />
            <mxPoint x="215.61" y="540" as="targetPoint" />
          </mxGeometry>
        </mxCell>
        <mxCell id="U_RFVBzudO1FIwCkmDKW-59" value="" style="endArrow=none;html=1;rounded=0;" edge="1" parent="1">
          <mxGeometry width="50" height="50" relative="1" as="geometry">
            <mxPoint x="125" y="565" as="sourcePoint" />
            <mxPoint x="145" y="565" as="targetPoint" />
          </mxGeometry>
        </mxCell>
        <mxCell id="U_RFVBzudO1FIwCkmDKW-60" value="" style="endArrow=none;html=1;rounded=0;" edge="1" parent="1">
          <mxGeometry width="50" height="50" relative="1" as="geometry">
            <mxPoint x="125" y="560" as="sourcePoint" />
            <mxPoint x="125" y="570" as="targetPoint" />
          </mxGeometry>
        </mxCell>
        <mxCell id="U_RFVBzudO1FIwCkmDKW-61" value="" style="endArrow=none;html=1;rounded=0;" edge="1" parent="1">
          <mxGeometry width="50" height="50" relative="1" as="geometry">
            <mxPoint x="125" y="535" as="sourcePoint" />
            <mxPoint x="145" y="535" as="targetPoint" />
          </mxGeometry>
        </mxCell>
        <mxCell id="U_RFVBzudO1FIwCkmDKW-62" value="" style="endArrow=none;html=1;rounded=0;" edge="1" parent="1">
          <mxGeometry width="50" height="50" relative="1" as="geometry">
            <mxPoint x="125" y="530" as="sourcePoint" />
            <mxPoint x="125" y="540" as="targetPoint" />
          </mxGeometry>
        </mxCell>
        <mxCell id="U_RFVBzudO1FIwCkmDKW-63" value="" style="endArrow=none;html=1;rounded=0;" edge="1" parent="1">
          <mxGeometry width="50" height="50" relative="1" as="geometry">
            <mxPoint x="530.12" y="530" as="sourcePoint" />
            <mxPoint x="550.12" y="530" as="targetPoint" />
          </mxGeometry>
        </mxCell>
        <mxCell id="U_RFVBzudO1FIwCkmDKW-64" value="" style="endArrow=none;html=1;rounded=0;" edge="1" parent="1">
          <mxGeometry width="50" height="50" relative="1" as="geometry">
            <mxPoint x="530.12" y="525" as="sourcePoint" />
            <mxPoint x="530.12" y="535" as="targetPoint" />
          </mxGeometry>
        </mxCell>
        <mxCell id="U_RFVBzudO1FIwCkmDKW-65" value="" style="endArrow=none;html=1;rounded=0;" edge="1" parent="1">
          <mxGeometry width="50" height="50" relative="1" as="geometry">
            <mxPoint x="675" y="550" as="sourcePoint" />
            <mxPoint x="695" y="550" as="targetPoint" />
          </mxGeometry>
        </mxCell>
        <mxCell id="U_RFVBzudO1FIwCkmDKW-66" value="" style="endArrow=none;html=1;rounded=0;" edge="1" parent="1">
          <mxGeometry width="50" height="50" relative="1" as="geometry">
            <mxPoint x="675" y="545" as="sourcePoint" />
            <mxPoint x="675" y="555" as="targetPoint" />
          </mxGeometry>
        </mxCell>
        <mxCell id="U_RFVBzudO1FIwCkmDKW-67" value="" style="endArrow=none;html=1;rounded=0;" edge="1" parent="1">
          <mxGeometry width="50" height="50" relative="1" as="geometry">
            <mxPoint x="804" y="560" as="sourcePoint" />
            <mxPoint x="824" y="560" as="targetPoint" />
          </mxGeometry>
        </mxCell>
        <mxCell id="U_RFVBzudO1FIwCkmDKW-68" value="" style="endArrow=none;html=1;rounded=0;" edge="1" parent="1">
          <mxGeometry width="50" height="50" relative="1" as="geometry">
            <mxPoint x="804" y="555" as="sourcePoint" />
            <mxPoint x="804" y="565" as="targetPoint" />
          </mxGeometry>
        </mxCell>
      </root>
    </mxGraphModel>
  </diagram>
</mxfile>
